<svg width="30" height="30" viewBox="0 0 30 30" fill="none" xmlns="http://www.w3.org/2000/svg">
<g id="Frame" clip-path="url(#clip0_4606_12491)">
<g id="Group">
<path id="Vector" d="M24.9463 4.18945L0.981413 13.418C0.317351 13.6914 -0.00979747 13.9893 -3.18444e-05 14.3115C0.00973378 14.6338 0.366179 14.9023 1.0693 15.1172L6.84079 16.8164L9.18454 23.8184C9.34079 24.2871 9.59469 24.5605 9.94626 24.6387C10.2978 24.7168 10.6494 24.5898 11.0009 24.2578L14.0185 21.2402L20.0244 25.6348C20.415 25.9277 20.7861 26.0059 21.1377 25.8691C21.4892 25.7324 21.7138 25.4297 21.8115 24.9609L26.1767 5.27343C26.2744 4.80468 26.206 4.46288 25.9716 4.24804C25.7373 4.0332 25.3955 4.01367 24.9463 4.18945ZM21.2841 8.64257L11.0888 17.7246C10.9912 17.8223 10.9033 17.9394 10.8252 18.0762C10.747 18.2129 10.708 18.3398 10.708 18.457L10.2392 22.7051C10.2197 22.9394 10.1757 23.0615 10.1074 23.0713C10.039 23.081 9.96579 22.9687 9.88766 22.7344L7.89548 16.7871C7.85641 16.6699 7.8613 16.5478 7.91012 16.4209C7.95895 16.2939 8.03219 16.2012 8.12985 16.1426L21.1084 8.3789C21.5185 8.12499 21.7431 8.02246 21.7822 8.07128C21.8213 8.12011 21.6552 8.31054 21.2841 8.64257Z" fill="#E96730"/>
</g>
</g>
<defs>
<clipPath id="clip0_4606_12491">
<rect width="30" height="30" fill="white" transform="matrix(1 0 0 -1 0 30)"/>
</clipPath>
</defs>
</svg>
